<svg width="50" height="50" viewBox="0 0 50 50" fill="none" xmlns="http://www.w3.org/2000/svg">
<rect x="0.75" y="0.75" width="48.5" height="48.5" rx="24.25" fill="#F7F7FD" stroke="#E9CACE" stroke-width="1.5"/>
<rect x="5.55566" y="5.55554" width="38.8889" height="38.8889" rx="19.4444" fill="#E9CACE"/>
<path d="M16.9 20.3708C14.9787 20.3708 13.4277 21.9218 13.4277 23.8431V33.1023C13.4277 35.0236 14.9787 36.5746 16.9 36.5746H18.6361C19.9092 36.5746 20.9509 35.5329 20.9509 34.2597V22.6857C20.9509 21.4125 19.9092 20.3708 18.6361 20.3708H16.9ZM18.0574 30.7875C18.0574 31.2621 17.6638 31.6556 17.1893 31.6556C16.7148 31.6556 16.3213 31.2621 16.3213 30.7875V26.1579C16.3213 25.6834 16.7148 25.2898 17.1893 25.2898C17.6638 25.2898 18.0574 25.6834 18.0574 26.1579V30.7875Z" fill="#F06578"/>
<path d="M33.1022 13.4255H26.1578C24.2365 13.4255 22.6855 14.9765 22.6855 16.8978V33.1015C22.6855 35.0228 24.2365 36.5737 26.1578 36.5737H26.7365C27.0605 36.5737 27.3152 36.3191 27.3152 35.995V31.9441C27.3152 31.3075 27.836 30.7866 28.4726 30.7866H30.7874C31.424 30.7866 31.9448 31.3075 31.9448 31.9441V35.995C31.9448 36.3191 32.1994 36.5737 32.5235 36.5737H33.1022C35.0235 36.5737 36.5744 35.0228 36.5744 33.1015V16.8978C36.5744 14.9765 35.0235 13.4255 33.1022 13.4255ZM28.1832 26.157C28.1832 26.6316 27.7897 27.0251 27.3152 27.0251C26.8406 27.0251 26.4471 26.6316 26.4471 26.157V20.37C26.4471 19.8954 26.8406 19.5019 27.3152 19.5019C27.7897 19.5019 28.1832 19.8954 28.1832 20.37V26.157ZM32.8129 26.157C32.8129 26.6316 32.4193 27.0251 31.9448 27.0251C31.4703 27.0251 31.0768 26.6316 31.0768 26.157V20.37C31.0768 19.8954 31.4703 19.5019 31.9448 19.5019C32.4193 19.5019 32.8129 19.8954 32.8129 20.37V26.157Z" fill="#F06578"/>
</svg>
