<svg width="50" height="50" viewBox="0 0 50 50" fill="none" xmlns="http://www.w3.org/2000/svg">
<rect x="0.75" y="0.75" width="48.5" height="48.5" rx="24.25" stroke="#E9CACE" stroke-width="1.5"/>
<rect x="6.05566" y="6.05554" width="37.8889" height="37.8889" rx="18.9444" fill="#E9CACE" stroke="#E9CACE"/>
<g clip-path="url(#clip0_1566_3904)">
<path d="M21 27C22.1046 27 23 26.1046 23 25C23 23.8954 22.1046 23 21 23C19.8954 23 19 23.8954 19 25C19 26.1046 19.8954 27 21 27Z" stroke="#F06578" stroke-width="2" stroke-linecap="round" stroke-linejoin="round"/>
<path d="M29 23C30.1046 23 31 22.1046 31 21C31 19.8954 30.1046 19 29 19C27.8954 19 27 19.8954 27 21C27 22.1046 27.8954 23 29 23Z" stroke="#F06578" stroke-width="2" stroke-linecap="round" stroke-linejoin="round"/>
<path d="M29 31C30.1046 31 31 30.1046 31 29C31 27.8954 30.1046 27 29 27C27.8954 27 27 27.8954 27 29C27 30.1046 27.8954 31 29 31Z" stroke="#F06578" stroke-width="2" stroke-linecap="round" stroke-linejoin="round"/>
<path d="M22.7998 24.1333L27.1998 21.8666" stroke="#F06578" stroke-width="2" stroke-linecap="round" stroke-linejoin="round"/>
<path d="M22.7998 25.8666L27.1998 28.1333" stroke="#F06578" stroke-width="2" stroke-linecap="round" stroke-linejoin="round"/>
</g>
<defs>
<clipPath id="clip0_1566_3904">
<rect width="16" height="16" fill="white" transform="translate(17 17)"/>
</clipPath>
</defs>
</svg>
